<svg width="19" height="30" viewBox="0 0 19 30" fill="none" xmlns="http://www.w3.org/2000/svg">
<path fill-rule="evenodd" clip-rule="evenodd" d="M14.0482 14.5025C13.9762 14.8597 13.76 15.1454 13.4719 15.3597C13.1837 15.574 12.8956 15.6454 12.6074 15.7168C12.0311 15.9311 11.3827 16.074 10.8785 16.3597C10.2301 16.6454 9.65378 16.7883 9.1495 17.0026C8.50115 17.2883 7.85279 17.4311 7.27647 17.6454C6.84423 17.8597 6.412 18.074 5.97976 18.3597C5.61956 18.6454 5.3314 19.0026 5.04324 19.4312C4.75509 19.8597 4.68305 20.4312 4.68305 21.1455C4.68305 22.5026 5.04324 23.5026 5.6916 24.2884C6.33996 24.9312 7.56463 25.2884 9.36562 25.2884C11.1666 25.2884 12.3913 24.9312 13.1837 24.2884C13.8321 23.5741 14.1923 22.5741 14.1923 21.2883L14.0482 14.5025ZM9.43719 0C12.679 0 14.9842 0.642866 16.5691 1.85717C18.0819 3.1429 18.8023 4.71435 18.8023 6.57152V9.14298V21.0717V22.6432C18.8023 23.286 18.7303 24.0003 18.4421 24.7861C18.226 25.6432 17.7217 26.2861 17.0734 26.9289C16.353 27.5718 15.4165 28.1432 14.1918 28.5718C12.9671 29.0004 11.3823 29.2147 9.43719 29.2147C7.49212 29.2147 5.90725 29.0004 4.68258 28.5718C3.4579 28.1432 2.52139 27.5718 1.80099 26.9289C1.08059 26.2861 0.576317 25.5718 0.432238 24.7861C0.144079 23.9289 0.0720396 23.286 0.0720396 22.6432V20.0003C0.0720396 18.6431 0.432238 17.3574 1.08059 16.2145C1.80099 15.1431 2.80955 14.2859 4.10626 13.8573C4.75462 13.5716 5.47501 13.4288 6.33949 13.143C7.20396 12.8573 7.9964 12.5716 8.86087 12.2859C9.72535 12.0002 10.3737 11.7144 10.878 11.5716C11.4543 11.3573 11.8145 11.2144 11.9586 11.2144C12.1747 11.2144 12.3188 11.0002 12.5349 10.9287C12.8231 10.8573 12.9671 10.5716 13.2553 10.3573C13.5435 10.0716 13.6155 9.78585 13.8316 9.50013C14.0477 9.14298 14.1198 8.78584 14.1198 8.28583V7.28582C14.1198 6.92867 14.0477 6.57152 13.8316 6.21437C13.7596 5.85722 13.4714 5.50008 13.1112 5.21436C12.751 4.85721 12.2467 4.64292 11.5984 4.3572C11.0221 4.14291 10.2296 4.07149 9.29311 4.07149C7.42008 4.07149 6.26745 4.42863 5.61909 5.14293C5.04277 5.78579 4.68258 6.64295 4.68258 7.5001C4.68258 7.71439 4.46646 7.85725 4.32238 7.85725H0.360198C0.144079 7.85725 0 7.64296 0 7.5001V6.57152C0 5.64294 0.216119 4.85721 0.576317 4.00006C0.936515 3.1429 1.51283 2.50003 2.23323 1.85717C2.95362 1.28573 3.96218 0.785725 5.18685 0.500007C6.26745 0.285718 7.78028 0 9.43719 0Z" fill="white"/>
</svg>
